<svg xmlns="http://www.w3.org/2000/svg" viewBox="0 0 27.93 27.94"><g id="圖層_2" data-name="圖層 2"><g id="Layer_1" data-name="Layer 1"><path d="M0,7c0-.28.07-.56.11-.84A4,4,0,0,1,.88,4.27L1,4.08l.09.07L7.58,10.6a.19.19,0,0,1,0,.22A3.11,3.11,0,0,0,8.26,14,60.55,60.55,0,0,0,14,19.68a3.14,3.14,0,0,0,3.12.63.19.19,0,0,1,.23,0l6.43,6.44.09.1a3.09,3.09,0,0,1-1.16.7,6.92,6.92,0,0,1-2.85.33,14,14,0,0,1-6.36-2.13,34,34,0,0,1-6.94-5.7A32.88,32.88,0,0,1,2,14.18,14.17,14.17,0,0,1,.19,9.4C.11,9,.08,8.54,0,8.11L0,8Z"/><path d="M25.14,25.6l-6.43-6.41,1.08-1.07,1.35-1.35a1,1,0,0,1,1.55,0l4.89,4.88a1,1,0,0,1,.29,1.07,1.21,1.21,0,0,1-.24.39l-2.45,2.46Z"/><path d="M8.77,9.21,2.33,2.79l.09-.09C3.2,1.91,4,1.12,4.78.34a1,1,0,0,1,1.48,0l4.94,5a1,1,0,0,1,0,1.48L9.53,8.43Z"/></g></g></svg>