<svg xmlns="http://www.w3.org/2000/svg" viewBox="0 0 26.34 26.61"><g id="圖層_2" data-name="圖層 2"><g id="Layer_1" data-name="Layer 1"><path d="M0,23V11.82a.52.52,0,0,0,0-.11,3.7,3.7,0,0,1,.86-2,10.84,10.84,0,0,1,.85-.81l8.47-7.7A4.22,4.22,0,0,1,12.8,0a4.07,4.07,0,0,1,3.2,1l6.92,6.25c.64.59,1.28,1.19,1.94,1.76a3.85,3.85,0,0,1,1.47,3c0,3.51,0,7,0,10.53a3.68,3.68,0,0,1-.41,1.73,3.92,3.92,0,0,1-3.68,2.22H4.05a4,4,0,0,1-1.95-.48,3.94,3.94,0,0,1-2-2.48C.07,23.42.05,23.18,0,23ZM4.07,10.23l.11.09L13.07,17a.13.13,0,0,0,.2,0l8.9-6.67.09-.08-.12-.11L14.31,3.06a1.68,1.68,0,0,0-2.3,0L5,9.36Zm6.25,8L4.57,24H21.79L16,18.2l-.15.11L14,19.72a1.31,1.31,0,0,1-1.67,0l-.84-.63ZM2.64,22.07l5.49-5.5L2.64,12.45Zm15.58-5.51L23.69,22V12.45Z"/></g></g></svg>