<svg xmlns="http://www.w3.org/2000/svg" viewBox="0 0 38.7 31.03"><defs><style>.cls-1{stroke:#000;stroke-linecap:round;stroke-miterlimit:10;stroke-width:2px;}</style></defs><g id="圖層_2" data-name="圖層 2"><g id="Layer_1" data-name="Layer 1"><path d="M15.94,31A3.1,3.1,0,1,1,19,27.93,3.1,3.1,0,0,1,15.94,31Zm0-4.37a1.27,1.27,0,1,0,1.31,1.27A1.3,1.3,0,0,0,15.94,26.66Z"/><path d="M23.83,31a3.1,3.1,0,1,1,3.06-3.1A3.1,3.1,0,0,1,23.83,31Zm0-4.37a1.27,1.27,0,1,0,1.31,1.27A1.3,1.3,0,0,0,23.83,26.66Z"/><path d="M27.47,23.05h-15a.87.87,0,0,1-.81-.58L7.75,11.86a1,1,0,0,1,.1-.85.86.86,0,0,1,.72-.4H26.74a.92.92,0,0,1,0,1.83H9.84l3.23,8.79H26.84l4.8-14.59A.86.86,0,0,1,32.46,6h5.36a.91.91,0,0,1,0,1.82H33.09l-4.8,14.59A.86.86,0,0,1,27.47,23.05Z"/><line class="cls-1" x1="1" y1="4.21" x2="7.46" y2="4.23"/><line class="cls-1" x1="4.24" y1="7.45" x2="4.24" y2="1"/></g></g></svg>